<svg width="60" height="40" viewBox="0 0 60 40" fill="none" xmlns="http://www.w3.org/2000/svg">
<path d="M32.8668 37.9722C32.6916 37.9792 32.5794 37.9931 32.4673 37.9931C30.0701 37.9931 27.6799 37.9861 25.2827 38C24.9463 38 24.8551 37.9097 24.8551 37.5763C24.8621 32.0474 24.8622 26.5116 24.8622 20.9827C24.8622 20.8369 24.8622 20.691 24.8622 20.5035C23.5584 20.5035 22.2897 20.5035 21 20.5035C21 18.5309 21 16.593 21 14.5995C21.1332 14.5995 21.2593 14.5995 21.3785 14.5995C22.4299 14.5995 23.4813 14.5926 24.5327 14.6065C24.7991 14.6065 24.8692 14.5301 24.8692 14.2731C24.8551 12.7242 24.8551 11.1683 24.8692 9.61938C24.8762 8.53584 25.0514 7.48007 25.5561 6.50071C26.278 5.11849 27.4206 4.22248 28.8645 3.66682C30.0421 3.20839 31.2827 3.04169 32.5304 3.02085C34.5631 2.99307 36.5958 3.00696 38.6285 3.00002C38.8178 3.00002 38.972 2.99307 38.972 3.25701C38.965 5.16711 38.965 7.07721 38.965 8.98731C38.965 9.00815 38.9579 9.02899 38.9299 9.11928C38.8107 9.11928 38.6776 9.11928 38.5444 9.11928C37.2827 9.11928 36.021 9.11234 34.7593 9.11928C34.0304 9.11928 33.4416 9.41101 33.0701 10.0431C32.9579 10.2306 32.8879 10.4737 32.8879 10.696C32.8668 11.8768 32.8879 13.0576 32.8738 14.2384C32.8738 14.5162 32.9579 14.5926 33.2313 14.5926C34.9836 14.5787 36.736 14.5856 38.4883 14.5856C38.6285 14.5856 38.7617 14.5856 39 14.5856C38.7547 16.5721 38.5164 18.517 38.271 20.4826C36.4486 20.4826 34.6752 20.4826 32.8668 20.4826C32.8668 26.3241 32.8668 32.1308 32.8668 37.9722Z" fill="white"/>
</svg>
