<svg width="18" height="35" viewBox="0 0 18 35" fill="none" xmlns="http://www.w3.org/2000/svg">
<path d="M11.8668 34.9722C11.6916 34.9792 11.5794 34.9931 11.4673 34.9931C9.07009 34.9931 6.67991 34.9861 4.28271 35C3.94626 35 3.85514 34.9097 3.85514 34.5763C3.86215 29.0474 3.86215 23.5116 3.86215 17.9827C3.86215 17.8369 3.86215 17.691 3.86215 17.5035C2.55841 17.5035 1.28972 17.5035 0 17.5035C0 15.5309 0 13.593 0 11.5995C0.133178 11.5995 0.259345 11.5995 0.378504 11.5995C1.42991 11.5995 2.48131 11.5926 3.53271 11.6065C3.79907 11.6065 3.86916 11.5301 3.86916 11.2731C3.85514 9.72416 3.85514 8.1683 3.86916 6.61938C3.87617 5.53584 4.0514 4.48007 4.55608 3.50071C5.27804 2.11849 6.42056 1.22248 7.86449 0.666816C9.04206 0.208392 10.2827 0.0416923 11.5304 0.0208548C13.5631 -0.00692844 15.5958 0.00696318 17.6285 1.73646e-05C17.8178 1.73646e-05 17.972 -0.00692846 17.972 0.257013C17.965 2.16711 17.965 4.07721 17.965 5.98731C17.965 6.00815 17.9579 6.02899 17.9299 6.11928C17.8107 6.11928 17.6776 6.11928 17.5444 6.11928C16.2827 6.11928 15.021 6.11234 13.7593 6.11928C13.0304 6.11928 12.4416 6.41101 12.0701 7.04308C11.9579 7.23062 11.8879 7.47372 11.8879 7.69599C11.8668 8.87677 11.8879 10.0576 11.8738 11.2384C11.8738 11.5162 11.9579 11.5926 12.2313 11.5926C13.9836 11.5787 15.736 11.5856 17.4883 11.5856C17.6285 11.5856 17.7617 11.5856 18 11.5856C17.7547 13.5721 17.5164 15.517 17.271 17.4826C15.4486 17.4826 13.6752 17.4826 11.8668 17.4826C11.8668 23.3241 11.8668 29.1308 11.8668 34.9722Z" fill="#0A0A0A"/>
</svg>
