<svg width="60" height="40" viewBox="0 0 60 40" fill="none" xmlns="http://www.w3.org/2000/svg">
<g clip-path="url(#clip0_657_1271)">
<path d="M29.5025 5C25.292 5 24.7622 5.01766 23.1098 5.09334C21.8242 5.11947 20.5523 5.36344 19.3483 5.81486C18.3135 6.20176 17.3764 6.81154 16.6035 7.60099C15.8148 8.37545 15.2036 9.31196 14.8123 10.3458C14.3607 11.5505 14.1176 12.8234 14.0933 14.1098C14.0202 15.7622 14 16.2895 14 20.5C14 24.7105 14.0177 25.2353 14.0933 26.8902C14.1195 28.1758 14.3634 29.4477 14.8149 30.6517C15.2037 31.6856 15.8132 32.6222 16.601 33.3965C17.3748 34.186 18.3115 34.7973 19.3458 35.1877C20.5509 35.6381 21.8235 35.8812 23.1098 35.9067C24.7622 35.9823 25.2895 36 29.5 36C33.7105 36 34.2353 35.9823 35.8902 35.9067C37.1765 35.8812 38.4491 35.6381 39.6542 35.1877C40.6851 34.7878 41.6213 34.1775 42.4032 33.3956C43.1851 32.6138 43.7954 31.6775 44.1952 30.6466C44.6442 29.4419 44.8881 28.1705 44.9167 26.8852C44.9899 25.2327 45.0101 24.7055 45.0101 20.495C45.0101 16.2844 44.9899 15.7572 44.9167 14.1047C44.8881 12.8186 44.6442 11.5463 44.1952 10.3407C43.8058 9.30656 43.1954 8.36983 42.4066 7.59595C41.6342 6.80592 40.697 6.19604 39.6618 5.80981C38.4534 5.359 37.1772 5.11673 35.8877 5.09334C34.2327 5.01766 33.708 5 29.4975 5H29.5025ZM28.1099 7.79272H29.5025C33.6399 7.79272 34.1293 7.80786 35.7641 7.88355C36.747 7.89473 37.7207 8.07479 38.6426 8.41585C39.3156 8.6645 39.9243 9.06107 40.4237 9.57633C40.9379 10.0766 41.3343 10.685 41.5841 11.3574C41.9252 12.2793 42.1053 13.253 42.1165 14.2359C42.1921 15.8682 42.2073 16.3601 42.2073 20.4975C42.2073 24.6348 42.1921 25.1243 42.1165 26.759C42.1055 27.7412 41.9255 28.714 41.5841 29.635C41.3259 30.303 40.9308 30.9095 40.4242 31.4157C39.9176 31.9218 39.3108 32.3164 38.6426 32.5741C37.7213 32.9177 36.7473 33.0987 35.7641 33.1089C34.1318 33.1846 33.6399 33.1997 29.5025 33.1997C25.3652 33.1997 24.8732 33.1846 23.2384 33.1089C22.2554 33.0969 21.2817 32.916 20.3599 32.5741C19.6862 32.3265 19.0767 31.9308 18.5763 31.4161C18.062 30.9165 17.6663 30.3078 17.4184 29.635C17.0765 28.7133 16.8955 27.7396 16.8835 26.7565C16.8104 25.1217 16.7952 24.6323 16.7952 20.4924C16.7952 16.3525 16.8104 15.8656 16.8835 14.2309C16.894 13.2477 17.075 12.2737 17.4184 11.3524C17.6663 10.6795 18.062 10.0709 18.5763 9.57129C19.0771 9.05651 19.6864 8.66004 20.3599 8.41081C21.282 8.06994 22.2555 7.88907 23.2384 7.87598C24.6689 7.81291 25.2214 7.79272 28.1099 7.7902V7.79272ZM37.7747 10.366C37.4064 10.366 37.0463 10.4752 36.7401 10.6799C36.4339 10.8846 36.1952 11.1755 36.0544 11.5159C35.9136 11.8562 35.8768 12.2307 35.9489 12.5919C36.0209 12.9532 36.1985 13.2849 36.4591 13.5452C36.7198 13.8055 37.0517 13.9826 37.4131 14.0541C37.7744 14.1257 38.1488 14.0885 38.489 13.9472C38.8291 13.8058 39.1197 13.5668 39.324 13.2603C39.5283 12.9538 39.6371 12.5936 39.6366 12.2253C39.6366 11.9809 39.5884 11.7389 39.4948 11.5132C39.4012 11.2874 39.264 11.0823 39.0911 10.9096C38.9182 10.737 38.7129 10.6001 38.487 10.5068C38.2612 10.4135 38.0191 10.3656 37.7747 10.366ZM29.5025 12.5406C27.9283 12.5406 26.3894 13.0074 25.0805 13.882C23.7716 14.7566 22.7514 15.9997 22.149 17.4541C21.5466 18.9085 21.389 20.5088 21.6961 22.0528C22.0032 23.5968 22.7612 25.015 23.8744 26.1281C24.9875 27.2413 26.4058 27.9993 27.9497 28.3065C29.4937 28.6136 31.0941 28.4559 32.5484 27.8535C34.0028 27.2511 35.2459 26.2309 36.1205 24.922C36.9951 23.6131 37.4619 22.0742 37.4619 20.5C37.4612 18.3892 36.6225 16.3651 35.1299 14.8726C33.6374 13.3801 31.6133 12.5413 29.5025 12.5406ZM29.5025 15.3333C30.5247 15.3318 31.5244 15.6336 32.375 16.2004C33.2257 16.7672 33.8891 17.5736 34.2813 18.5176C34.6735 19.4615 34.7769 20.5006 34.5784 21.5033C34.3799 22.5061 33.8884 23.4274 33.1662 24.1507C32.4439 24.874 31.5233 25.3669 30.5208 25.5668C29.5184 25.7668 28.4792 25.6649 27.5346 25.2741C26.5901 24.8833 25.7827 24.221 25.2147 23.3712C24.6466 22.5214 24.3434 21.5222 24.3434 20.5C24.3461 19.1328 24.8906 17.8223 25.8576 16.8558C26.8246 15.8893 28.1353 15.3454 29.5025 15.3434V15.3333Z" fill="white"/>
</g>
<defs>
<clipPath id="clip0_657_1271">
<rect width="31" height="31" fill="white" transform="translate(14 5)"/>
</clipPath>
</defs>
</svg>
