<svg width="31" height="31" viewBox="0 0 31 31" fill="none" xmlns="http://www.w3.org/2000/svg">
<g clip-path="url(#clip0_171_2481)">
<mask id="path-1-inside-1_171_2481" fill="white">
<path d="M15.5025 0C11.292 0 10.7622 0.0176595 9.10978 0.0933431C7.82418 0.119473 6.55233 0.363437 5.34831 0.81486C4.31347 1.20176 3.3764 1.81154 2.60352 2.60099C1.81477 3.37545 1.20363 4.31196 0.812337 5.34578C0.360739 6.55054 0.117598 7.8234 0.0933431 9.10978C0.0201823 10.7622 0 11.2895 0 15.5C0 19.7105 0.0176595 20.2353 0.0933431 21.8902C0.119473 23.1758 0.363437 24.4477 0.81486 25.6517C1.20366 26.6856 1.81319 27.6222 2.60099 28.3965C3.37478 29.186 4.31149 29.7973 5.34578 30.1877C6.55087 30.6381 7.82352 30.8812 9.10978 30.9067C10.7622 30.9823 11.2895 31 15.5 31C19.7105 31 20.2353 30.9823 21.8902 30.9067C23.1765 30.8812 24.4491 30.6381 25.6542 30.1877C26.6851 29.7878 27.6213 29.1775 28.4032 28.3956C29.1851 27.6138 29.7954 26.6775 30.1952 25.6466C30.6442 24.4419 30.8881 23.1705 30.9167 21.8852C30.9899 20.2327 31.0101 19.7055 31.0101 15.495C31.0101 11.2844 30.9899 10.7572 30.9167 9.10474C30.8881 7.81858 30.6442 6.54631 30.1952 5.34074C29.8058 4.30656 29.1954 3.36983 28.4066 2.59595C27.6342 1.80592 26.697 1.19604 25.6618 0.809815C24.4534 0.358996 23.1772 0.116726 21.8877 0.0933431C20.2327 0.0176595 19.708 0 15.4975 0H15.5025ZM14.1099 2.79272H15.5025C19.6399 2.79272 20.1293 2.80786 21.7641 2.88355C22.747 2.89473 23.7207 3.07479 24.6426 3.41585C25.3156 3.6645 25.9243 4.06107 26.4237 4.57633C26.9379 5.07656 27.3343 5.68497 27.5841 6.35742C27.9252 7.27933 28.1053 8.25301 28.1165 9.23592C28.1921 10.8682 28.2073 11.3601 28.2073 15.4975C28.2073 19.6348 28.1921 20.1243 28.1165 21.759C28.1055 22.7412 27.9255 23.714 27.5841 24.635C27.3259 25.303 26.9308 25.9095 26.4242 26.4157C25.9176 26.9218 25.3108 27.3164 24.6426 27.5741C23.7213 27.9177 22.7473 28.0987 21.7641 28.1089C20.1318 28.1846 19.6399 28.1997 15.5025 28.1997C11.3652 28.1997 10.8732 28.1846 9.23844 28.1089C8.25538 28.0969 7.2817 27.916 6.35994 27.5741C5.68621 27.3265 5.07667 26.9308 4.57633 26.4161C4.06199 25.9165 3.66628 25.3078 3.41838 24.635C3.07645 23.7133 2.89554 22.7396 2.88354 21.7565C2.81038 20.1217 2.79525 19.6323 2.79525 15.4924C2.79525 11.3525 2.81038 10.8656 2.88354 9.23088C2.89403 8.24767 3.07499 7.27373 3.41838 6.35238C3.66628 5.67954 4.06199 5.0709 4.57633 4.57129C5.07707 4.05651 5.68643 3.66004 6.35994 3.41081C7.28199 3.06994 8.25549 2.88907 9.23844 2.87598C10.6689 2.81291 11.2214 2.79272 14.1099 2.7902V2.79272ZM23.7747 5.36597C23.4064 5.36597 23.0463 5.47522 22.7401 5.67992C22.4339 5.88461 22.1952 6.17553 22.0544 6.51588C21.9136 6.85623 21.8768 7.23071 21.9489 7.59193C22.0209 7.95316 22.1985 8.2849 22.4591 8.54518C22.7198 8.80546 23.0517 8.98258 23.4131 9.05413C23.7744 9.12569 24.1488 9.08846 24.489 8.94715C24.8291 8.80585 25.1197 8.56682 25.324 8.26032C25.5283 7.95381 25.6371 7.5936 25.6366 7.22526C25.6366 6.98088 25.5884 6.7389 25.4948 6.51316C25.4012 6.28741 25.264 6.08233 25.0911 5.90965C24.9182 5.73696 24.7129 5.60006 24.487 5.50677C24.2612 5.41348 24.0191 5.36564 23.7747 5.36597ZM15.5025 7.54061C13.9283 7.54061 12.3894 8.00742 11.0805 8.88201C9.77161 9.7566 8.75143 10.9997 8.149 12.4541C7.54658 13.9085 7.38895 15.5088 7.69607 17.0528C8.00318 18.5968 8.76124 20.015 9.87438 21.1281C10.9875 22.2413 12.4058 22.9993 13.9497 23.3065C15.4937 23.6136 17.0941 23.4559 18.5484 22.8535C20.0028 22.2511 21.2459 21.2309 22.1205 19.922C22.9951 18.6131 23.4619 17.0742 23.4619 15.5C23.4612 13.3892 22.6225 11.3651 21.1299 9.8726C19.6374 8.38007 17.6133 7.54128 15.5025 7.54061ZM15.5025 10.3333C16.5247 10.3318 17.5244 10.6336 18.375 11.2004C19.2257 11.7672 19.8891 12.5736 20.2813 13.5176C20.6735 14.4615 20.7769 15.5006 20.5784 16.5033C20.3799 17.5061 19.8884 18.4274 19.1662 19.1507C18.4439 19.874 17.5233 20.3669 16.5208 20.5668C15.5184 20.7668 14.4792 20.6649 13.5346 20.2741C12.5901 19.8833 11.7827 19.221 11.2147 18.3712C10.6466 17.5214 10.3434 16.5222 10.3434 15.5C10.3461 14.1328 10.8906 12.8223 11.8576 11.8558C12.8246 10.8893 14.1353 10.3454 15.5025 10.3434C15.5025 10.3434 14.4803 10.3348 15.5025 10.3333Z"/>
</mask>
<path d="M15.5025 0C11.292 0 10.7622 0.0176595 9.10978 0.0933431C7.82418 0.119473 6.55233 0.363437 5.34831 0.81486C4.31347 1.20176 3.3764 1.81154 2.60352 2.60099C1.81477 3.37545 1.20363 4.31196 0.812337 5.34578C0.360739 6.55054 0.117598 7.8234 0.0933431 9.10978C0.0201823 10.7622 0 11.2895 0 15.5C0 19.7105 0.0176595 20.2353 0.0933431 21.8902C0.119473 23.1758 0.363437 24.4477 0.81486 25.6517C1.20366 26.6856 1.81319 27.6222 2.60099 28.3965C3.37478 29.186 4.31149 29.7973 5.34578 30.1877C6.55087 30.6381 7.82352 30.8812 9.10978 30.9067C10.7622 30.9823 11.2895 31 15.5 31C19.7105 31 20.2353 30.9823 21.8902 30.9067C23.1765 30.8812 24.4491 30.6381 25.6542 30.1877C26.6851 29.7878 27.6213 29.1775 28.4032 28.3956C29.1851 27.6138 29.7954 26.6775 30.1952 25.6466C30.6442 24.4419 30.8881 23.1705 30.9167 21.8852C30.9899 20.2327 31.0101 19.7055 31.0101 15.495C31.0101 11.2844 30.9899 10.7572 30.9167 9.10474C30.8881 7.81858 30.6442 6.54631 30.1952 5.34074C29.8058 4.30656 29.1954 3.36983 28.4066 2.59595C27.6342 1.80592 26.697 1.19604 25.6618 0.809815C24.4534 0.358996 23.1772 0.116726 21.8877 0.0933431C20.2327 0.0176595 19.708 0 15.4975 0H15.5025ZM14.1099 2.79272H15.5025C19.6399 2.79272 20.1293 2.80786 21.7641 2.88355C22.747 2.89473 23.7207 3.07479 24.6426 3.41585C25.3156 3.6645 25.9243 4.06107 26.4237 4.57633C26.9379 5.07656 27.3343 5.68497 27.5841 6.35742C27.9252 7.27933 28.1053 8.25301 28.1165 9.23592C28.1921 10.8682 28.2073 11.3601 28.2073 15.4975C28.2073 19.6348 28.1921 20.1243 28.1165 21.759C28.1055 22.7412 27.9255 23.714 27.5841 24.635C27.3259 25.303 26.9308 25.9095 26.4242 26.4157C25.9176 26.9218 25.3108 27.3164 24.6426 27.5741C23.7213 27.9177 22.7473 28.0987 21.7641 28.1089C20.1318 28.1846 19.6399 28.1997 15.5025 28.1997C11.3652 28.1997 10.8732 28.1846 9.23844 28.1089C8.25538 28.0969 7.2817 27.916 6.35994 27.5741C5.68621 27.3265 5.07667 26.9308 4.57633 26.4161C4.06199 25.9165 3.66628 25.3078 3.41838 24.635C3.07645 23.7133 2.89554 22.7396 2.88354 21.7565C2.81038 20.1217 2.79525 19.6323 2.79525 15.4924C2.79525 11.3525 2.81038 10.8656 2.88354 9.23088C2.89403 8.24767 3.07499 7.27373 3.41838 6.35238C3.66628 5.67954 4.06199 5.0709 4.57633 4.57129C5.07707 4.05651 5.68643 3.66004 6.35994 3.41081C7.28199 3.06994 8.25549 2.88907 9.23844 2.87598C10.6689 2.81291 11.2214 2.79272 14.1099 2.7902V2.79272ZM23.7747 5.36597C23.4064 5.36597 23.0463 5.47522 22.7401 5.67992C22.4339 5.88461 22.1952 6.17553 22.0544 6.51588C21.9136 6.85623 21.8768 7.23071 21.9489 7.59193C22.0209 7.95316 22.1985 8.2849 22.4591 8.54518C22.7198 8.80546 23.0517 8.98258 23.4131 9.05413C23.7744 9.12569 24.1488 9.08846 24.489 8.94715C24.8291 8.80585 25.1197 8.56682 25.324 8.26032C25.5283 7.95381 25.6371 7.5936 25.6366 7.22526C25.6366 6.98088 25.5884 6.7389 25.4948 6.51316C25.4012 6.28741 25.264 6.08233 25.0911 5.90965C24.9182 5.73696 24.7129 5.60006 24.487 5.50677C24.2612 5.41348 24.0191 5.36564 23.7747 5.36597ZM15.5025 7.54061C13.9283 7.54061 12.3894 8.00742 11.0805 8.88201C9.77161 9.7566 8.75143 10.9997 8.149 12.4541C7.54658 13.9085 7.38895 15.5088 7.69607 17.0528C8.00318 18.5968 8.76124 20.015 9.87438 21.1281C10.9875 22.2413 12.4058 22.9993 13.9497 23.3065C15.4937 23.6136 17.0941 23.4559 18.5484 22.8535C20.0028 22.2511 21.2459 21.2309 22.1205 19.922C22.9951 18.6131 23.4619 17.0742 23.4619 15.5C23.4612 13.3892 22.6225 11.3651 21.1299 9.8726C19.6374 8.38007 17.6133 7.54128 15.5025 7.54061ZM15.5025 10.3333C16.5247 10.3318 17.5244 10.6336 18.375 11.2004C19.2257 11.7672 19.8891 12.5736 20.2813 13.5176C20.6735 14.4615 20.7769 15.5006 20.5784 16.5033C20.3799 17.5061 19.8884 18.4274 19.1662 19.1507C18.4439 19.874 17.5233 20.3669 16.5208 20.5668C15.5184 20.7668 14.4792 20.6649 13.5346 20.2741C12.5901 19.8833 11.7827 19.221 11.2147 18.3712C10.6466 17.5214 10.3434 16.5222 10.3434 15.5C10.3461 14.1328 10.8906 12.8223 11.8576 11.8558C12.8246 10.8893 14.1353 10.3454 15.5025 10.3434C15.5025 10.3434 14.4803 10.3348 15.5025 10.3333Z" fill="#0A0A0A"/>
<path d="M9.10978 0.0933431L10.7761 82.0764L11.8193 82.0552L12.8616 82.0075L9.10978 0.0933431ZM5.34831 0.81486L34.0645 77.6223L34.1001 77.609L34.1357 77.5956L5.34831 0.81486ZM2.60352 2.60099L60.0541 61.111L60.6316 60.544L61.1978 59.9657L2.60352 2.60099ZM0.812337 5.34578L-75.8782 -23.6811L-75.9246 -23.5587L-75.9705 -23.4361L0.812337 5.34578ZM0.0933431 9.10978L82.0131 12.7368L82.0591 11.6966L82.0788 10.6557L0.0933431 9.10978ZM0.0933431 21.8902L82.0764 20.2239L82.0553 19.1836L82.0077 18.1441L0.0933431 21.8902ZM0.81486 25.6517L-75.9659 54.4391L-75.9516 54.4773L-75.9372 54.5155L0.81486 25.6517ZM2.60099 28.3965L61.1655 -28.9986L60.627 -29.5481L60.0782 -30.0875L2.60099 28.3965ZM5.34578 30.1877L-23.6084 106.906L-23.4858 106.952L-23.3632 106.998L5.34578 30.1877ZM9.10978 30.9067L12.8616 -51.0075L11.798 -51.0562L10.7335 -51.0773L9.10978 30.9067ZM21.8902 30.9067L20.2665 -51.0773L19.2049 -51.0562L18.1441 -51.0077L21.8902 30.9067ZM25.6542 30.1877L54.3632 106.998L54.8363 106.821L55.3072 106.638L25.6542 30.1877ZM30.1952 25.6466L106.646 55.2996L106.842 54.7933L107.032 54.2845L30.1952 25.6466ZM30.9167 21.8852L-51.003 18.2582L-51.0429 19.1584L-51.0629 20.0592L30.9167 21.8852ZM30.9167 9.10474L-51.0629 10.9298L-51.0429 11.8311L-51.003 12.7317L30.9167 9.10474ZM30.1952 5.34074L107.039 -23.2789L106.987 -23.4166L106.936 -23.5542L30.1952 5.34074ZM28.4066 2.59595L-30.2263 59.9212L-29.6289 60.5322L-29.0188 61.1307L28.4066 2.59595ZM25.6618 0.809815L54.3263 -76.0169L54.3243 -76.0176L25.6618 0.809815ZM21.8877 0.0933431L18.1416 82.0077L19.2708 82.0594L20.4011 82.0799L21.8877 0.0933431ZM14.1099 2.79272H-67.8901V84.7927H14.1099V2.79272ZM21.7641 2.88355L17.9718 84.7958L19.4006 84.862L20.8308 84.8782L21.7641 2.88355ZM24.6426 3.41585L-3.80893 80.3217L-3.79073 80.3285L-3.77252 80.3352L24.6426 3.41585ZM26.4237 4.57633L-32.4609 61.643L-31.6204 62.5103L-30.7547 63.3525L26.4237 4.57633ZM27.5841 6.35742L104.49 -22.0941L104.47 -22.1489L104.449 -22.2037L27.5841 6.35742ZM28.1165 9.23592L-53.8782 10.1692L-53.8619 11.6023L-53.7955 13.034L28.1165 9.23592ZM28.1165 21.759L-53.7958 17.9668L-53.8624 19.4061L-53.8785 20.8469L28.1165 21.759ZM27.5841 24.635L104.068 54.2011L104.275 53.6672L104.474 53.1305L27.5841 24.635ZM24.6426 27.5741L53.3038 104.402L53.7243 104.245L54.1431 104.084L24.6426 27.5741ZM21.7641 28.1089L20.9156 -53.8867L19.44 -53.8715L17.966 -53.8031L21.7641 28.1089ZM9.23844 28.1089L13.0307 -53.8034L11.6355 -53.868L10.239 -53.885L9.23844 28.1089ZM6.35994 27.5741L34.8787 -49.3069L34.7607 -49.3507L34.6426 -49.394L6.35994 27.5741ZM4.57633 26.4161L63.3717 -30.7425L62.5529 -31.5848L61.7102 -32.4033L4.57633 26.4161ZM3.41838 24.635L80.3618 -3.71487L80.3306 -3.79933L80.2993 -3.88373L3.41838 24.635ZM2.88354 21.7565L84.8774 20.756L84.8612 19.4226L84.8016 18.0904L2.88354 21.7565ZM2.88354 9.23088L84.8016 12.897L84.864 11.5016L84.8789 10.1049L2.88354 9.23088ZM3.41838 6.35238L80.2553 34.9896L80.3088 34.8461L80.3618 34.7023L3.41838 6.35238ZM4.57633 4.57129L61.7102 63.3906L62.5444 62.5804L63.3553 61.7468L4.57633 4.57129ZM6.35994 3.41081L-22.0732 -73.5019L-22.0855 -73.4973L-22.0979 -73.4927L6.35994 3.41081ZM9.23844 2.87598L10.3302 84.8687L11.5909 84.8519L12.8505 84.7964L9.23844 2.87598ZM14.1099 2.7902H96.1099V-79.2814L14.0383 -79.2098L14.1099 2.7902ZM23.7747 5.36597L23.7748 87.366H23.8304L23.886 87.3659L23.7747 5.36597ZM25.6366 7.22526L-56.3634 7.22519V7.28078L-56.3634 7.33637L25.6366 7.22526ZM15.5025 7.54061L15.5285 -74.4594H15.5155H15.5025V7.54061ZM23.4619 15.5H105.462V15.487L105.462 15.474L23.4619 15.5ZM10.3434 15.5L-71.6564 15.3399L-71.6566 15.42V15.5001L10.3434 15.5ZM15.5025 10.3434L15.6225 92.3433L16.1919 -71.6537L15.5025 10.3434ZM15.5025 -82C10.9023 -82 8.89664 -81.9829 5.35799 -81.8208L12.8616 82.0075C13.2713 81.9887 13.2339 81.9913 13.1112 81.9956C12.907 82.0028 12.7315 82.0066 12.6616 82.0078C12.6509 82.0079 12.8128 82.0053 13.3083 82.0032C13.8013 82.0011 14.4875 82 15.5025 82V-82ZM7.44349 -81.8897C-3.11157 -81.6752 -13.5538 -79.6722 -23.4391 -75.9659L34.1357 77.5956C26.6585 80.3991 18.7599 81.9141 10.7761 82.0764L7.44349 -81.8897ZM-23.3679 -75.9926C-35.6674 -71.3941 -46.8048 -64.1466 -55.9908 -54.7637L61.1978 59.9657C53.5576 67.7697 44.2943 73.7976 34.0645 77.6223L-23.3679 -75.9926ZM-54.8471 -55.9091C-64.1081 -46.8158 -71.2838 -35.8197 -75.8782 -23.6811L77.5029 34.3727C73.6911 44.4437 67.7376 53.5667 60.0541 61.111L-54.8471 -55.9091ZM-75.9705 -23.4361C-79.6898 -13.5138 -81.6923 -3.03064 -81.8921 7.56391L82.0788 10.6557C81.9275 18.6774 80.4113 26.6149 77.5952 34.1276L-75.9705 -23.4361ZM-81.8264 5.4828C-81.9771 8.88707 -82 10.7855 -82 15.5H82C82 14.4943 82.0012 13.8148 82.0034 13.3305C82.0057 12.8452 82.0083 12.6829 82.0082 12.6912C82.0071 12.7561 82.0036 12.9126 81.9976 13.0849C81.9947 13.1676 81.9933 13.1832 82.0131 12.7368L-81.8264 5.4828ZM-82 15.5C-82 20.1056 -81.9827 22.1012 -81.821 25.6363L82.0077 18.1441C81.9888 17.7304 81.9913 17.7667 81.9956 17.8871C82.0028 18.0903 82.0066 18.266 82.0077 18.3373C82.0079 18.3491 82.0053 18.1881 82.0032 17.6932C82.0011 17.2008 82 16.5151 82 15.5H-82ZM-81.8897 23.5565C-81.6752 34.1116 -79.6722 44.5538 -75.9659 54.4391L77.5956 -3.13571C80.3991 4.34153 81.9141 12.2401 82.0764 20.2239L-81.8897 23.5565ZM-75.9372 54.5155C-71.3527 66.7063 -64.1654 77.7511 -54.8762 86.8804L60.0782 -30.0875C67.7918 -22.5066 73.76 -13.3352 77.5669 -3.21208L-75.9372 54.5155ZM-55.9635 85.7916C-46.8423 95.0987 -35.8006 102.304 -23.6084 106.906L34.2999 -46.5304C44.4235 -42.7096 53.5918 -36.7266 61.1655 -28.9986L-55.9635 85.7916ZM-23.3632 106.998C-13.4864 110.689 -3.05592 112.682 7.48608 112.891L10.7335 -51.0773C18.703 -50.9194 26.5882 -49.4132 34.0547 -46.6225L-23.3632 106.998ZM5.35799 112.821C8.89577 112.983 10.8982 113 15.5 113V-51C14.485 -51 13.799 -51.0011 13.3063 -51.0032C12.8111 -51.0053 12.6498 -51.0079 12.6612 -51.0077C12.7321 -51.0066 12.9083 -51.0028 13.1128 -50.9955C13.2352 -50.9912 13.2728 -50.9886 12.8616 -51.0075L5.35799 112.821ZM15.5 113C20.1055 113 22.1012 112.983 25.6363 112.821L18.1441 -51.0077C17.7304 -50.9888 17.7667 -50.9913 17.8872 -50.9956C18.0904 -51.0028 18.2661 -51.0066 18.3373 -51.0077C18.3491 -51.0079 18.1881 -51.0053 17.6932 -51.0032C17.2008 -51.0011 16.5151 -51 15.5 -51V113ZM23.5139 112.891C34.0559 112.682 44.4864 110.689 54.3632 106.998L-3.05473 -46.6225C4.41184 -49.4132 12.2971 -50.9194 20.2665 -51.0773L23.5139 112.891ZM55.3072 106.638C66.962 102.118 77.5466 95.2177 86.386 86.3784L-29.5796 -29.5871C-22.3039 -36.8628 -13.5917 -42.5421 -3.99873 -46.263L55.3072 106.638ZM86.386 86.3784C95.2253 77.539 102.125 66.9543 106.646 55.2996L-46.2554 -4.00629C-42.5346 -13.5993 -36.8552 -22.3115 -29.5796 -29.5871L86.386 86.3784ZM107.032 54.2845C110.681 44.4927 112.664 34.1584 112.896 23.7111L-51.0629 20.0592C-50.8875 12.1826 -49.3929 4.39123 -46.6415 -2.99115L107.032 54.2845ZM112.836 25.5122C112.987 22.1079 113.01 20.2094 113.01 15.495H-50.9899C-50.9899 16.5006 -50.9912 17.1801 -50.9934 17.6644C-50.9956 18.1498 -50.9982 18.3121 -50.9981 18.3038C-50.997 18.2388 -50.9935 18.0824 -50.9875 17.91C-50.9846 17.8274 -50.9832 17.8118 -51.003 18.2582L112.836 25.5122ZM113.01 15.495C113.01 10.7805 112.987 8.88205 112.836 5.47776L-51.003 12.7317C-50.9832 13.1781 -50.9846 13.1626 -50.9875 13.0799C-50.9935 12.9075 -50.997 12.7511 -50.9981 12.6861C-50.9982 12.6779 -50.9956 12.8401 -50.9934 13.3255C-50.9912 13.8098 -50.9899 14.4893 -50.9899 15.495H113.01ZM112.896 7.27969C112.664 -3.16216 110.684 -13.4913 107.039 -23.2789L-46.6482 33.9603C-49.3955 26.5839 -50.8877 18.7993 -51.0629 10.9298L112.896 7.27969ZM106.936 -23.5542C102.341 -35.7561 95.1391 -46.8081 85.832 -55.9388L-29.0188 61.1307C-36.7483 53.5478 -42.7296 44.3692 -46.5451 34.2357L106.936 -23.5542ZM87.0395 -54.7293C77.8337 -64.1451 66.6638 -71.4137 54.3263 -76.0169L-3.00271 77.6365C-13.2699 73.8058 -22.5654 67.7569 -30.2263 59.9212L87.0395 -54.7293ZM54.3243 -76.0176C44.4148 -79.7147 33.9493 -81.7014 23.3743 -81.8932L20.4011 82.0799C12.4052 81.9349 4.49198 80.4326 -3.00076 77.6373L54.3243 -76.0176ZM25.6338 -81.821C22.0987 -81.9827 20.1031 -82 15.4975 -82V82C16.5125 82 17.1983 82.0011 17.6907 82.0032C18.1855 82.0053 18.3465 82.0079 18.3348 82.0077C18.2635 82.0066 18.0878 82.0028 17.8846 81.9956C17.7642 81.9913 17.7279 81.9888 18.1416 82.0077L25.6338 -81.821ZM15.4975 82H15.5025V-82H15.4975V82ZM14.1099 84.7927H15.5025V-79.2073H14.1099V84.7927ZM15.5025 84.7927C16.5077 84.7927 17.1835 84.7937 17.6699 84.7956C18.1598 84.7976 18.3087 84.8 18.2849 84.7997C18.1984 84.7983 18.0023 84.7941 17.7742 84.786C17.6287 84.7808 17.5748 84.7774 17.9718 84.7958L25.5563 -79.0287C21.9764 -79.1945 19.9603 -79.2073 15.5025 -79.2073V84.7927ZM20.8308 84.8782C12.4172 84.7825 4.08257 83.2412 -3.80893 80.3217L53.0941 -73.49C43.3588 -77.0916 33.0768 -78.993 22.6973 -79.1111L20.8308 84.8782ZM-3.77252 80.3352C-14.6139 76.3302 -24.4177 69.9424 -32.4609 61.643L85.3082 -52.4904C76.2663 -61.8203 65.2452 -69.0012 53.0577 -73.5035L-3.77252 80.3352ZM-30.7547 63.3525C-38.9636 55.3667 -45.2921 45.6539 -49.2811 34.9185L104.449 -22.2037C99.9607 -34.2839 92.8394 -45.2136 83.6021 -54.1998L-30.7547 63.3525ZM-49.3217 34.8089C-52.2412 26.9174 -53.7825 18.5828 -53.8782 10.1692L110.111 8.30266C109.993 -2.07676 108.092 -12.3587 104.49 -22.0941L-49.3217 34.8089ZM-53.7955 13.034C-53.7772 13.4285 -53.7807 13.3733 -53.786 13.2258C-53.7941 12.9964 -53.7983 12.7998 -53.7997 12.7137C-53.8 12.6902 -53.7976 12.8394 -53.7956 13.3297C-53.7937 13.8164 -53.7927 14.4923 -53.7927 15.4975H110.207C110.207 11.0435 110.195 9.02043 110.028 5.43784L-53.7955 13.034ZM-53.7927 15.4975C-53.7927 16.5027 -53.7937 17.1784 -53.7956 17.6648C-53.7976 18.1548 -53.8 18.3036 -53.7997 18.2798C-53.7983 18.1933 -53.7941 17.9972 -53.786 17.7691C-53.7808 17.6236 -53.7774 17.5697 -53.7958 17.9668L110.029 25.5513C110.194 21.9714 110.207 19.9553 110.207 15.4975H-53.7927ZM-53.8785 20.8469C-53.7846 12.4097 -52.2377 4.05162 -49.3054 -3.86045L104.474 53.1305C108.089 43.3765 109.996 33.0726 110.111 22.6711L-53.8785 20.8469ZM-48.9001 -4.93111C-45.0341 -14.9321 -39.1185 -24.0135 -31.5336 -31.5919L84.3821 84.4233C92.9802 75.8326 99.686 65.538 104.068 54.2011L-48.9001 -4.93111ZM-31.5336 -31.5919C-23.9488 -39.1703 -14.8622 -45.0781 -4.85792 -48.9356L54.1431 104.084C65.4837 99.7109 75.784 93.014 84.3821 84.4233L-31.5336 -31.5919ZM-4.01865 -49.2539C3.96175 -52.231 12.3987 -53.7986 20.9156 -53.8867L22.6126 110.104C33.0959 109.996 43.4809 108.067 53.3038 104.402L-4.01865 -49.2539ZM17.966 -53.8031C17.5715 -53.7848 17.6267 -53.7883 17.7742 -53.7935C18.0037 -53.8017 18.2002 -53.8059 18.2864 -53.8072C18.3098 -53.8076 18.1606 -53.8051 17.6703 -53.8032C17.1836 -53.8013 16.5077 -53.8003 15.5025 -53.8003V110.2C19.9565 110.2 21.9795 110.187 25.5622 110.021L17.966 -53.8031ZM15.5025 -53.8003C14.4973 -53.8003 13.8214 -53.8013 13.3347 -53.8032C12.8444 -53.8051 12.6949 -53.8076 12.7179 -53.8072C12.8035 -53.8059 12.9989 -53.8017 13.2267 -53.7936C13.3725 -53.7885 13.4263 -53.7851 13.0307 -53.8034L5.44621 110.021C9.02701 110.187 11.0464 110.2 15.5025 110.2V-53.8003ZM10.239 -53.885C18.6537 -53.7823 26.9884 -52.2338 34.8787 -49.3069L-22.1588 104.455C-12.425 108.066 -2.14296 109.976 8.23793 110.103L10.239 -53.885ZM34.6426 -49.394C45.4948 -45.4063 55.3127 -39.0322 63.3717 -30.7425L-54.219 83.5747C-45.1594 92.8938 -34.1224 100.059 -21.9228 104.542L34.6426 -49.394ZM61.7102 -32.4033C69.995 -24.3559 76.3687 -14.5524 80.3618 -3.71487L-73.525 52.9849C-69.0361 65.1681 -61.871 76.1889 -52.5576 85.2355L61.7102 -32.4033ZM80.2993 -3.88373C83.2262 4.00647 84.7748 12.3411 84.8774 20.756L-79.1104 22.757C-78.9837 33.138 -77.0733 43.42 -73.4626 53.1538L80.2993 -3.88373ZM84.8016 18.0904C84.7835 17.6874 84.7861 17.7266 84.7904 17.8522C84.7976 18.0592 84.8013 18.237 84.8023 18.3082C84.8025 18.3188 84.8001 18.1596 84.7981 17.6664C84.7962 17.1763 84.7952 16.4975 84.7952 15.4924H-79.2048C-79.2048 19.9627 -79.1913 21.918 -79.0345 25.4226L84.8016 18.0904ZM84.7952 15.4924C84.7952 14.4873 84.7962 13.8087 84.7981 13.319C84.8001 12.8261 84.8025 12.6676 84.8023 12.6789C84.8012 12.751 84.7975 12.9294 84.7904 13.1368C84.7861 13.2621 84.7834 13.3014 84.8016 12.897L-79.0345 5.56479C-79.1913 9.06857 -79.2048 11.0205 -79.2048 15.4924H84.7952ZM84.8789 10.1049C84.7883 18.6048 83.2239 27.0245 80.2553 34.9896L-73.4185 -22.2849C-77.0739 -12.4771 -79.0002 -2.10947 -79.1118 8.35681L84.8789 10.1049ZM80.3618 34.7023C76.3687 45.5397 69.995 55.3433 61.7102 63.3906L-52.5576 -54.2481C-61.871 -45.2015 -69.0361 -34.1807 -73.525 -21.9975L80.3618 34.7023ZM63.3553 61.7468C55.3436 69.9832 45.5938 76.3267 34.8177 80.3143L-22.0979 -73.4927C-34.221 -69.0066 -45.1894 -61.8701 -54.2026 -52.6042L63.3553 61.7468ZM34.7931 80.3235C26.9571 83.2203 18.6838 84.7575 10.3302 84.8687L8.14664 -79.1168C-2.17286 -78.9793 -12.3931 -77.0804 -22.0732 -73.5019L34.7931 80.3235ZM12.8505 84.7964C13.2128 84.7804 13.225 84.7804 13.1661 84.7825C13.0379 84.7872 12.8745 84.7919 12.7289 84.7947C12.6199 84.7969 12.6383 84.7956 12.8831 84.7939C13.137 84.7922 13.5355 84.7907 14.1816 84.7902L14.0383 -79.2098C10.3121 -79.2065 8.53524 -79.1727 5.62643 -79.0444L12.8505 84.7964ZM-67.8901 2.7902V2.79272H96.1099V2.7902H-67.8901ZM23.7747 -76.634C7.18346 -76.634 -9.03485 -71.7127 -22.8283 -62.4928L68.3085 73.8527C55.1275 82.6631 39.6293 87.366 23.7748 87.366L23.7747 -76.634ZM-22.8283 -62.4928C-36.6216 -53.273 -47.3704 -40.1689 -53.7144 -24.8384L97.8232 37.8702C91.7609 52.52 81.4894 65.0422 68.3085 73.8527L-22.8283 -62.4928ZM-53.7144 -24.8384C-60.0584 -9.50793 -61.7124 7.35972 -58.4674 23.6303L102.365 -8.44638C105.466 7.1017 103.885 23.2204 97.8232 37.8702L-53.7144 -24.8384ZM-58.4674 23.6303C-55.2223 39.9008 -47.2241 54.8434 -35.4843 66.5672L80.4026 -49.4769C91.6211 -38.2736 99.2642 -23.9945 102.365 -8.44638L-58.4674 23.6303ZM-35.4843 66.5672C-23.7445 78.2911 -8.79111 86.2691 7.4838 89.4921L39.3423 -71.3838C54.8946 -68.3039 69.1841 -60.6802 80.4026 -49.4769L-35.4843 66.5672ZM7.4838 89.4921C23.7589 92.715 40.6243 91.0381 55.946 84.6733L-6.96806 -66.779C7.67335 -72.8611 23.7899 -74.4637 39.3423 -71.3838L7.4838 89.4921ZM55.946 84.6733C71.2677 78.3086 84.3573 67.5422 93.5585 53.7362L-42.9105 -37.2156C-34.1178 -50.4086 -21.6094 -60.6969 -6.96806 -66.779L55.946 84.6733ZM93.5585 53.7362C102.76 39.9303 107.659 23.7053 107.636 7.11415L-56.3634 7.33637C-56.3849 -8.51812 -51.7031 -24.0227 -42.9105 -37.2156L93.5585 53.7362ZM107.637 7.22534C107.637 -3.79683 105.464 -14.7108 101.242 -24.8925L-50.2527 37.9188C-54.2869 28.1887 -56.3635 17.7586 -56.3634 7.22519L107.637 7.22534ZM101.242 -24.8925C97.0208 -35.0744 90.8335 -44.324 83.0345 -52.1124L-32.8523 63.9317C-40.3055 56.4887 -46.2184 47.6493 -50.2527 37.9188L101.242 -24.8925ZM83.0345 -52.1124C75.2354 -59.901 65.9773 -66.0756 55.79 -70.2832L-6.81592 81.2968C-16.5515 77.2758 -25.399 71.3749 -32.8523 63.9317L83.0345 -52.1124ZM55.79 -70.2832C45.6025 -74.4909 34.6855 -76.6489 23.6635 -76.634L23.886 87.3659C13.3527 87.3802 2.91982 85.3179 -6.81592 81.2968L55.79 -70.2832ZM15.5025 -74.4594C-2.28979 -74.4594 -19.6825 -69.1833 -34.4762 -59.2985L56.6373 77.0625C44.4614 85.1982 30.1464 89.5406 15.5025 89.5406V-74.4594ZM-34.4762 -59.2985C-49.27 -49.4136 -60.8003 -35.3639 -67.6091 -18.926L83.9071 43.8341C78.3032 57.3633 68.8132 68.9268 56.6373 77.0625L-34.4762 -59.2985ZM-67.6091 -18.926C-74.4179 -2.48805 -76.1994 15.5998 -72.7283 33.0502L88.1205 1.0554C90.9773 15.4179 89.5111 30.305 83.9071 43.8341L-67.6091 -18.926ZM-72.7283 33.0502C-69.2572 50.5006 -60.6894 66.5299 -48.1084 79.1109L67.8571 -36.8546C78.2119 -26.4998 85.2636 -13.3071 88.1205 1.0554L-72.7283 33.0502ZM-48.1084 79.1109C-35.5273 91.692 -19.498 100.26 -2.04769 103.731L29.9471 -57.1179C44.3096 -54.2611 57.5023 -47.2094 67.8571 -36.8546L-48.1084 79.1109ZM-2.04769 103.731C15.4027 107.202 33.4905 105.42 49.9285 98.6116L-12.8316 -52.9046C0.69758 -58.5086 15.5847 -59.9748 29.9471 -57.1179L-2.04769 103.731ZM49.9285 98.6116C66.3664 91.8028 80.4161 80.2725 90.301 65.4788L-46.06 -25.6348C-37.9243 -37.8107 -26.3607 -47.3007 -12.8316 -52.9046L49.9285 98.6116ZM90.301 65.4788C100.186 50.685 105.462 33.2923 105.462 15.5H-58.5381C-58.5381 0.856186 -54.1957 -13.4588 -46.06 -25.6348L90.301 65.4788ZM105.462 15.474C105.454 -8.37547 95.9768 -31.246 79.1127 -48.1102L-36.8528 67.8554C-50.7319 53.9763 -58.5319 35.154 -58.5381 15.526L105.462 15.474ZM79.1127 -48.1102C62.2485 -64.9743 39.378 -74.4518 15.5285 -74.4594L15.4765 89.5406C-4.15145 89.5344 -22.9738 81.7344 -36.8528 67.8554L79.1127 -48.1102ZM15.6226 92.3332C0.421723 92.3555 -14.4443 87.8683 -27.0943 79.4392L63.8444 -57.0385C49.493 -66.6011 32.6277 -71.6918 15.3824 -71.6666L15.6226 92.3332ZM-27.0943 79.4392C-39.7443 71.0102 -49.6097 59.0182 -55.4423 44.9808L96.0049 -17.9457C89.3879 -33.871 78.1957 -47.4758 63.8444 -57.0385L-27.0943 79.4392ZM-55.4423 44.9808C-61.2749 30.9434 -62.8125 15.4913 -59.8606 0.579586L101.017 32.4271C104.366 15.5099 102.622 -2.02042 96.0049 -17.9457L-55.4423 44.9808ZM-59.8606 0.579586C-56.9087 -14.332 -49.6 -28.0329 -38.8591 -38.7895L77.1914 77.0909C89.3768 64.8877 97.6685 49.3441 101.017 32.4271L-59.8606 0.579586ZM-38.8591 -38.7895C-28.1183 -49.5461 -14.4281 -56.875 0.479206 -59.8488L32.5625 100.982C49.4746 97.6087 65.006 89.2942 77.1914 77.0909L-38.8591 -38.7895ZM0.479206 -59.8488C15.3866 -62.8225 30.841 -61.3075 44.8869 -55.4955L-17.8176 96.0437C-1.88261 102.637 15.6502 104.356 32.5625 100.982L0.479206 -59.8488ZM44.8869 -55.4955C58.9329 -49.6835 70.9393 -39.8357 79.3868 -27.1981L-56.9574 63.9405C-47.3738 78.2778 -33.7527 89.4501 -17.8176 96.0437L44.8869 -55.4955ZM79.3868 -27.1981C87.8343 -14.5605 92.3434 0.29889 92.3434 15.4999L-71.6566 15.5001C-71.6566 32.7455 -66.5411 49.6033 -56.9574 63.9405L79.3868 -27.1981ZM92.3433 15.6601C92.3036 35.992 84.2066 55.4793 69.8262 69.8527L-46.111 -46.1411C-62.4254 -29.8347 -71.6114 -7.72648 -71.6564 15.3399L92.3433 15.6601ZM69.8262 69.8527C55.4457 84.2261 35.9545 92.3136 15.6225 92.3433L15.3826 -71.6565C-7.68387 -71.6227 -29.7965 -62.4476 -46.111 -46.1411L69.8262 69.8527ZM15.5025 10.3434C16.1919 -71.6537 16.1923 -71.6537 16.1926 -71.6537C16.1928 -71.6537 16.1932 -71.6537 16.1934 -71.6537C16.1939 -71.6537 16.1944 -71.6537 16.1949 -71.6537C16.1958 -71.6536 16.1967 -71.6536 16.1976 -71.6536C16.1993 -71.6536 16.2009 -71.6536 16.2022 -71.6536C16.205 -71.6536 16.207 -71.6535 16.2085 -71.6535C16.2115 -71.6535 16.2125 -71.6535 16.2122 -71.6535C16.2102 -71.6535 16.2086 -71.6535 16.21 -71.6535C16.2111 -71.6535 16.2159 -71.6535 16.224 -71.6534C16.2317 -71.6533 16.2472 -71.6531 16.2692 -71.6528C16.2859 -71.6526 16.423 -71.6509 16.6178 -71.6474C16.7065 -71.6457 16.9312 -71.6415 17.2237 -71.6339C17.3699 -71.63 17.6267 -71.6229 17.9481 -71.6116C18.1785 -71.6035 18.8813 -71.5784 19.7822 -71.5263C20.1992 -71.5023 21.1459 -71.4451 22.3483 -71.3376C22.9505 -71.2838 23.9806 -71.1854 25.2567 -71.0253C26.2002 -70.907 28.916 -70.558 32.3394 -69.8195C33.9731 -69.4671 37.391 -68.6853 41.5885 -67.2495C43.6021 -66.5313 48.2792 -64.628 50.9202 -63.4007C54.576 -61.5073 63.2337 -56.0122 68.0648 -52.2193C74.9158 -45.698 88.4331 -26.251 93.6691 -12.9607C96.8437 4.54823 92.3022 37.8287 85.5066 52.2845C79.2265 61.3772 66.4031 74.2637 60.6341 78.4976C56.6373 81.0073 49.5534 84.7234 46.5488 86.0446C36.8798 90.0677 28.4484 91.2344 28.2692 91.2637C25.9202 91.6474 24.0581 91.8443 23.2236 91.9279C21.4325 92.1074 20.029 92.1863 19.5601 92.2121C18.9118 92.2478 18.3909 92.2687 18.0892 92.2799C17.4858 92.3022 17.0135 92.3128 16.81 92.3171C15.8653 92.3371 15.065 92.3341 15.6226 92.3332L15.3824 -71.6666C15.2023 -71.6663 14.987 -71.6658 14.7651 -71.6646C14.7128 -71.6643 14.0787 -71.6618 13.3326 -71.646C13.1171 -71.6414 12.6353 -71.6306 12.0248 -71.608C11.7195 -71.5967 11.1955 -71.5757 10.5448 -71.5399C10.0735 -71.5139 8.66806 -71.4348 6.87553 -71.2552C6.04039 -71.1716 4.17766 -70.9746 1.82832 -70.5908C1.64869 -70.5615 -6.78303 -69.3947 -16.4522 -65.3716C-19.4569 -64.0502 -26.5408 -60.3342 -30.5376 -57.8245C-36.3066 -53.5906 -49.1301 -40.704 -55.4101 -31.6113C-62.2058 -17.1555 -66.7472 16.125 -63.5726 33.6339C-58.3367 46.9243 -44.8193 66.3712 -37.9683 72.8926C-25.675 83.3113 -13.3681 87.2811 -11.4918 87.9229C-7.29424 89.3588 -3.87621 90.1406 -2.24228 90.493C1.18143 91.2316 3.8977 91.5806 4.84169 91.6991C6.11843 91.8592 7.1492 91.9577 7.75218 92.0116C8.95616 92.1191 9.90495 92.1765 10.3244 92.2007C11.2303 92.253 11.9399 92.2785 12.1786 92.2869C12.5083 92.2985 12.7749 92.3059 12.9323 92.31C13.2473 92.3182 13.4999 92.323 13.6206 92.3252C14.0456 92.333 14.4365 92.3369 14.5076 92.3376C14.5888 92.3385 14.6591 92.3391 14.709 92.3396C14.7346 92.3398 14.7566 92.34 14.774 92.3402C14.7828 92.3403 14.7905 92.3403 14.797 92.3404C14.8003 92.3404 14.8033 92.3404 14.806 92.3405C14.8073 92.3405 14.8086 92.3405 14.8098 92.3405C14.8104 92.3405 14.811 92.3405 14.8115 92.3405C14.8118 92.3405 14.8122 92.3405 14.8124 92.3405C14.8128 92.3405 14.8132 92.3405 15.5025 10.3434Z" fill="black" mask="url(#path-1-inside-1_171_2481)"/>
</g>
<defs>
<clipPath id="clip0_171_2481">
<rect width="31" height="31" fill="white"/>
</clipPath>
</defs>
</svg>
