<svg width="78" height="75" viewBox="0 0 78 75" fill="none" xmlns="http://www.w3.org/2000/svg">
<path d="M0.843544 0.559418C0.757117 0.565327 0.682422 0.571667 0.617991 0.57832C1.35405 2.50662 4.7083 10.8763 8.01003 19.0635C9.78834 23.4731 11.5485 27.8226 12.8699 31.0694C13.5307 32.6929 14.0816 34.0401 14.4701 34.9811C14.5383 35.1463 14.6015 35.2989 14.6593 35.4381C14.8106 35.0877 14.9927 34.6566 15.1976 34.1645C15.7706 32.7886 16.5171 30.948 17.2581 29.0924C17.9991 27.2369 18.7337 25.3687 19.2828 23.9379C19.5574 23.2221 19.7848 22.618 19.9431 22.1805C20.0225 21.9612 20.0831 21.7875 20.1235 21.6638C20.1341 21.6313 20.1428 21.6037 20.1499 21.5805C20.139 21.5457 20.1247 21.5017 20.1065 21.448C20.0534 21.2909 19.9738 21.068 19.8696 20.7846C19.6615 20.2187 19.3597 19.4236 18.9862 18.4567C18.2397 16.5235 17.2096 13.9103 16.0768 11.084C14.9433 8.25606 13.9003 5.64664 13.1316 3.72306L12.8853 3.10664C12.6112 2.42065 12.3817 1.84618 12.2075 1.41055C12.0954 1.13031 12.0063 0.907749 11.9429 0.75L11.9049 0.655544C11.8902 0.652706 11.8737 0.649734 11.8554 0.646675C11.661 0.614231 11.3456 0.58564 10.8656 0.563061C9.9114 0.518181 8.37919 0.499901 6.02713 0.499901C3.13495 0.499901 1.62057 0.50629 0.843544 0.559418ZM20.1716 21.5019C20.1715 21.5021 20.171 21.5043 20.1703 21.508C20.1714 21.5036 20.1717 21.5016 20.1716 21.5019ZM20.1711 21.6531C20.1723 21.6594 20.1728 21.6607 20.1716 21.6552C20.1715 21.6548 20.1713 21.6541 20.1711 21.6531ZM12.0069 0.680298C12.0191 0.686401 12.0224 0.68623 12.0107 0.681679C12.0097 0.68129 12.0084 0.680832 12.0069 0.680298Z" stroke="white"/>
<path d="M43.9168 19.1352C43.5288 18.1468 43.1525 17.2546 42.8629 16.6071C42.7183 16.2839 42.5934 16.0174 42.4984 15.8288C42.4516 15.7361 42.4079 15.6538 42.3701 15.5909C42.3524 15.5615 42.3279 15.5225 42.2991 15.4859C42.2858 15.469 42.2592 15.4364 42.2211 15.4034L42.2196 15.4021C42.2006 15.3853 42.0774 15.2767 41.885 15.2767C41.809 15.2825 41.6869 15.3175 41.6409 15.3402C41.6116 15.3579 41.5651 15.3921 41.5472 15.4077C41.5131 15.4387 41.4909 15.4677 41.4823 15.4791C41.4629 15.505 41.4495 15.528 41.4445 15.5367C41.4321 15.5582 41.4212 15.58 41.4136 15.5956C41.3969 15.6295 41.3763 15.6745 41.3531 15.7266C41.3058 15.8325 41.2392 15.987 41.1549 16.1858C40.9858 16.5842 40.7416 17.1701 40.4308 17.9223C39.809 19.4272 38.9187 21.6028 37.8259 24.2866C35.6403 29.6544 32.6439 37.0578 29.3642 45.2013L43.9168 19.1352ZM43.9168 19.1352C43.9172 19.1361 43.9175 19.1369 43.9178 19.1377L44.9125 21.5981C45.3042 20.7034 46.56 17.6249 47.9073 14.2565C47.9073 14.2564 47.9074 14.2562 47.9074 14.2561L50.5351 7.64388L49.1119 3.9933L49.1115 3.9923L47.7414 0.5H41.9091H36.0733L21.49 36.6432C21.49 36.6432 21.49 36.6433 21.4899 36.6434C17.7134 46.0161 14.2126 54.6896 11.5326 61.3294C8.47755 68.8987 6.48923 73.8249 6.37525 74.1309L6.37198 74.1397L6.36838 74.1483L6.22211 74.5H11.6931H11.6941L17.5535 74.477L29.3641 45.2016L43.9168 19.1352Z" stroke="white"/>
<path d="M57.5541 35.9049C61.5449 26.0265 65.168 17.04 67.7933 10.5172C69.106 7.25575 70.1692 4.61035 70.9042 2.77736C71.2717 1.86081 71.557 1.14765 71.7504 0.662254C71.7653 0.624847 71.7797 0.588806 71.7935 0.554138C71.5049 0.54554 71.133 0.537445 70.6935 0.530273C69.5816 0.512123 68.0471 0.5 66.3612 0.5H60.5494L60.365 0.956902C60.3646 0.957993 60.3641 0.95916 60.3636 0.960411C60.1676 1.46478 54.7742 14.8181 48.3535 30.6965C45.146 38.6586 42.2097 45.8745 40.066 51.0882C38.9942 53.6949 38.1202 55.802 37.5093 57.2519C37.2041 57.9765 36.9637 58.539 36.7969 58.9182C36.7139 59.107 36.6472 59.2546 36.5991 59.3553C36.576 59.4038 36.5528 59.4505 36.532 59.4876C36.524 59.5019 36.5047 59.5361 36.4781 59.5708L36.4773 59.5718C36.4683 59.5836 36.4275 59.6372 36.3596 59.6839C36.3268 59.7064 36.2327 59.7664 36.0951 59.772C35.9446 59.7781 35.8117 59.7173 35.7192 59.6242L35.7191 59.6242C35.6669 59.5717 35.6318 59.513 35.6208 59.4944L35.6198 59.4928C35.6018 59.4628 35.5838 59.4295 35.5666 59.3963C35.5318 59.3292 35.4901 59.2426 35.4434 59.1418C35.3495 58.939 35.2274 58.6614 35.0863 58.33C34.804 57.6671 34.4409 56.7777 34.0661 55.8163C33.6959 54.908 33.3539 54.0849 33.0964 53.4787C32.9571 53.8161 32.789 54.2265 32.5972 54.6972C32.0341 56.0793 31.269 57.9774 30.4374 60.0638L30.437 60.0648L27.4727 67.4529L28.8943 71.0532L28.8947 71.0542L30.2641 74.5H36.1221H41.979L42.4571 73.2875L42.457 73.2875L42.4595 73.2816C42.5678 73.0168 43.3404 71.1016 44.6041 67.9693C47.2741 61.3512 52.1358 49.3004 57.5541 35.9049ZM57.5541 35.9049L58.0177 36.0922M57.5541 35.9049L58.0177 36.0922M58.0177 36.0922C52.6015 49.4824 47.7405 61.5314 45.0697 68.1517C43.8045 71.2877 43.0307 73.2056 42.9222 73.4709L42.3194 75L72.3229 0.575928C71.2038 3.39326 65.2075 18.2952 58.0177 36.0922ZM36.4778 58.9792C36.4824 58.9869 36.482 58.9854 36.4772 58.9782C36.4774 58.9786 36.4776 58.9789 36.4778 58.9792Z" stroke="white"/>
<path d="M63.3956 39.5148C61.4924 44.1006 60.0752 47.5292 59.1318 49.8429C58.6558 51.0105 58.3012 51.8921 58.066 52.4945C57.9482 52.7962 57.8617 53.0245 57.8051 53.1823C57.7892 53.2268 57.7762 53.2641 57.7658 53.2949C57.7763 53.3256 57.7892 53.3624 57.8045 53.4054C57.8604 53.5618 57.9437 53.7868 58.0522 54.0744C58.269 54.6487 58.5833 55.4636 58.9719 56.4597C59.7488 58.4511 60.8212 61.1618 62.0023 64.1096C62.0024 64.1098 62.0025 64.11 62.0025 64.1102L66.1923 74.5H71.9798C74.8484 74.5 76.3556 74.4936 77.1345 74.4376C77.2354 74.4303 77.3204 74.4225 77.3919 74.4142C77.3805 74.385 77.3683 74.3539 77.3554 74.321C77.2548 74.0649 77.1097 73.6983 76.926 73.2359C76.5588 72.3112 76.038 71.0056 75.4122 69.4396C74.1607 66.3076 72.4893 62.1354 70.7863 57.8894C67.5445 49.8069 64.1898 41.4623 63.3956 39.5148ZM77.5061 74.7106C77.5062 74.7107 77.5058 74.7086 77.5046 74.7042L77.5046 74.7046C77.5054 74.7085 77.506 74.7105 77.5061 74.7106ZM57.7345 53.1985C57.7347 53.1992 57.735 53.2004 57.7355 53.2021C57.7328 53.1899 57.7314 53.1872 57.7345 53.1985Z" stroke="white"/>
</svg>
