<svg width="60" height="40" viewBox="0 0 60 40" fill="none" xmlns="http://www.w3.org/2000/svg">
<path fill-rule="evenodd" clip-rule="evenodd" d="M49.1067 9.69277C49.3827 8.72006 49.1067 8 47.7863 8H43.4051C42.2888 8 41.7847 8.619 41.4966 9.30116C41.4966 9.30116 39.276 15.0111 36.1191 18.7251C35.0988 19.7989 34.6307 20.14 34.0786 20.14C33.8025 20.14 33.3824 19.7989 33.3824 18.8262V9.70541C33.3824 8.53057 33.0703 8.01263 32.146 8.01263H25.2682C24.572 8.01263 24.1519 8.55584 24.1519 9.07377C24.1519 10.1854 25.7243 10.4381 25.8923 13.5584V20.3421C25.8923 21.8327 25.6403 22.098 25.0761 22.098C23.5877 22.098 19.9867 16.3628 17.8381 9.79384C17.418 8.51794 16.9979 8 15.8816 8H11.5004C10.2521 8 10 8.619 10 9.30116C10 10.5265 11.4884 16.5776 16.9139 24.574C20.5269 30.044 25.6283 33 30.2615 33C33.0463 33 33.3824 32.3431 33.3824 31.2062V27.0753C33.3824 25.7615 33.6464 25.4962 34.5227 25.4962C35.1709 25.4962 36.2872 25.8373 38.8799 28.4775C41.8447 31.5978 42.3368 33 44.0053 33H48.3865C49.6348 33 50.259 32.3431 49.8989 31.0419C49.5028 29.7534 48.0864 27.8711 46.2019 25.6478C45.1816 24.3845 43.6572 23.0076 43.189 22.3254C42.5409 21.4411 42.7209 21.0622 43.189 20.2789C43.189 20.2789 48.5185 12.3709 49.0826 9.69277H49.1067Z" fill="white"/>
</svg>
