<svg width="40" height="25" viewBox="0 0 40 25" fill="none" xmlns="http://www.w3.org/2000/svg">
<path fill-rule="evenodd" clip-rule="evenodd" d="M39.1067 1.69277C39.3827 0.720061 39.1067 0 37.7863 0H33.4051C32.2888 0 31.7847 0.618999 31.4966 1.30116C31.4966 1.30116 29.276 7.01112 26.1191 10.7251C25.0988 11.7989 24.6307 12.14 24.0786 12.14C23.8025 12.14 23.3824 11.7989 23.3824 10.8262V1.70541C23.3824 0.530571 23.0703 0.0126326 22.146 0.0126326H15.2682C14.572 0.0126326 14.1519 0.555836 14.1519 1.07377C14.1519 2.18545 15.7243 2.4381 15.8923 5.55836V12.3421C15.8923 13.8327 15.6403 14.098 15.0761 14.098C13.5877 14.098 9.98672 8.36281 7.83813 1.79384C7.41802 0.517938 6.99791 0 5.8816 0H1.50041C0.252069 0 0 0.618999 0 1.30116C0 2.52653 1.48841 8.57756 6.91388 16.574C10.5269 22.044 15.6283 25 20.2615 25C23.0463 25 23.3824 24.3431 23.3824 23.2062V19.0753C23.3824 17.7615 23.6464 17.4962 24.5227 17.4962C25.1709 17.4962 26.2872 17.8373 28.8799 20.4775C31.8447 23.5978 32.3368 25 34.0053 25H38.3865C39.6348 25 40.259 24.3431 39.8989 23.0419C39.5028 21.7534 38.0864 19.8711 36.2019 17.6478C35.1816 16.3845 33.6572 15.0076 33.189 14.3254C32.5409 13.4411 32.7209 13.0622 33.189 12.2789C33.189 12.2789 38.5185 4.37089 39.0826 1.69277H39.1067Z" fill="#0A0A0A"/>
</svg>
