<svg width="60" height="40" viewBox="0 0 60 40" fill="none" xmlns="http://www.w3.org/2000/svg">
<path fill-rule="evenodd" clip-rule="evenodd" d="M46.201 9.88939C47.2851 10.9774 47.6367 13.4547 47.6367 13.4547L47.6338 13.4517C47.8582 15.3841 47.9805 17.3268 48 19.272V22.0096C47.9845 23.9546 47.8652 25.8975 47.6425 27.8298C47.6425 27.8298 47.291 30.31 46.2098 31.398C44.9738 32.6873 43.6068 32.8215 42.8321 32.8975C42.7474 32.9059 42.6698 32.9135 42.6001 32.9218C37.5695 33.2933 30.0015 33.2933 30.0015 33.2933C30.0015 33.2933 20.6404 33.2114 17.7602 32.9365C17.6214 32.9103 17.4532 32.89 17.2627 32.867C16.3475 32.7566 14.9193 32.5843 13.7843 31.398C12.709 30.2954 12.3575 27.8181 12.3575 27.8181C12.1351 25.8857 12.0157 23.9429 12 21.9979V19.2749C12.0155 17.3299 12.1348 15.387 12.3575 13.4547C12.3575 13.4547 12.7032 10.9774 13.7931 9.88939C15.0274 8.5994 16.3922 8.46582 17.1653 8.39015C17.2511 8.38175 17.3296 8.37407 17.3999 8.36559C22.4393 8 29.9985 8 29.9985 8C29.9985 8 37.5607 8 42.5943 8.36559C42.6639 8.37399 42.7416 8.38164 42.8265 8.38999C43.5997 8.46607 44.9682 8.60072 46.201 9.88939ZM26.2715 15.2041V25.3033L35.9959 20.2698L26.2715 15.2041Z" fill="white"/>
</svg>
