<svg width="36" height="26" viewBox="0 0 36 26" fill="none" xmlns="http://www.w3.org/2000/svg">
<path fill-rule="evenodd" clip-rule="evenodd" d="M34.201 1.88939C35.2851 2.9774 35.6367 5.45467 35.6367 5.45467L35.6338 5.45174C35.8582 7.38406 35.9805 9.32684 36 11.272V14.0096C35.9845 15.9546 35.8652 17.8975 35.6425 19.8298C35.6425 19.8298 35.291 22.31 34.2098 23.398C32.9738 24.6873 31.6068 24.8215 30.8321 24.8975C30.7474 24.9059 30.6698 24.9135 30.6001 24.9218C25.5695 25.2933 18.0015 25.2933 18.0015 25.2933C18.0015 25.2933 8.64035 25.2114 5.76023 24.9365C5.62145 24.9103 5.45319 24.89 5.26273 24.867C4.34746 24.7566 2.91934 24.5843 1.78432 23.398C0.709042 22.2954 0.357451 19.8181 0.357451 19.8181C0.135065 17.8857 0.0157462 15.9429 0 13.9979V11.2749C0.0154693 9.32988 0.134789 7.38704 0.357451 5.45467C0.357451 5.45467 0.703182 2.9774 1.79311 1.88939C3.02736 0.599402 4.39218 0.465819 5.16533 0.390146C5.25112 0.38175 5.32962 0.374066 5.39985 0.365594C10.4393 0 17.9985 0 17.9985 0C17.9985 0 25.5607 0 30.5943 0.365594C30.6639 0.373988 30.7416 0.381637 30.8265 0.389992C31.5997 0.466069 32.9682 0.60072 34.201 1.88939ZM14.2715 7.20312V17.3023L23.9959 12.2688L14.2715 7.20312Z" fill="#0A0A0A"/>
</svg>
